<svg width="32" height="32" viewBox="0 0 32 32" fill="none" xmlns="http://www.w3.org/2000/svg">
<path d="M25.768 7.70354C26.6668 9.04874 26.6668 10.9214 26.6668 14.6666C26.6668 18.4118 26.6668 20.2844 25.768 21.6296C25.3789 22.212 24.8789 22.712 24.2965 23.1011C23.1214 23.8863 21.5438 23.9856 18.6668 23.9981V23.9999L17.1927 26.9481C16.7014 27.9308 15.299 27.9308 14.8076 26.9481L13.3335 23.9999V23.9981C10.4566 23.9856 8.87892 23.8863 7.70379 23.1011C7.12144 22.712 6.62144 22.212 6.23232 21.6296C5.3335 20.2844 5.3335 18.4118 5.3335 14.6666C5.3335 10.9214 5.3335 9.04874 6.23232 7.70354C6.62144 7.1212 7.12144 6.62119 7.70379 6.23208C9.04898 5.33325 10.9216 5.33325 14.6668 5.33325H17.3335C21.0787 5.33325 22.9513 5.33325 24.2965 6.23208C24.8789 6.62119 25.3789 7.1212 25.768 7.70354Z" stroke="white" stroke-width="2" stroke-linecap="round" stroke-linejoin="round"/>
<path d="M12 12L20 12" stroke="white" stroke-width="2" stroke-linecap="round" stroke-linejoin="round"/>
<path d="M12 17.3333H16" stroke="white" stroke-width="2" stroke-linecap="round" stroke-linejoin="round"/>
</svg>
