<svg width="29" height="32" viewBox="0 0 29 32" fill="none" xmlns="http://www.w3.org/2000/svg">
<path d="M19.8787 12.4218L13.6063 23.2858C13.1348 24.0729 12.3664 24.6394 11.4667 24.8631C10.5671 25.0868 9.6084 24.9499 8.79758 24.4817C7.98676 24.0136 7.3888 23.2519 7.13274 22.3609C6.87668 21.4699 6.98306 20.5211 7.42891 19.7193L15.6403 5.47359C16.0239 4.78973 16.5422 4.19044 17.1652 3.71048C17.7881 3.23051 18.5032 2.87941 19.2692 2.67753C20.0351 2.47565 20.8366 2.427 21.6272 2.53441C22.4177 2.64182 23.1816 2.90315 23.8746 3.30325C24.5676 3.70334 25.1759 4.23425 25.6642 4.86519C26.1525 5.49614 26.5111 6.21456 26.7192 6.97882C26.9274 7.74308 26.9809 8.53798 26.8767 9.31743C26.7725 10.0969 26.5126 10.8454 26.1122 11.5195L17.8354 25.8554C17.2976 26.8195 16.5696 27.6647 15.6939 28.342C14.8181 29.0193 13.812 29.5151 12.734 29.8006C11.656 30.0861 10.5276 30.1555 9.41451 30.0049C8.30141 29.8544 7.22576 29.4867 6.25011 28.9234C5.27446 28.3602 4.41827 27.6124 3.73131 26.7237C3.04436 25.8351 2.54035 24.8231 2.24858 23.7468C1.95681 22.6705 1.88312 21.5513 2.03177 20.4542C2.18043 19.3571 2.54847 18.3041 3.1145 17.3563L10.8489 3.95993" stroke="#5B38E7" stroke-width="3" stroke-miterlimit="10" stroke-linecap="round"/>
</svg>
