<svg width="34" height="34" viewBox="0 0 34 34" fill="none" xmlns="http://www.w3.org/2000/svg">
<path d="M4.51167 3.30122L29.595 15.2976C29.8485 15.4187 30.0626 15.6091 30.2125 15.8467C30.3623 16.0843 30.4419 16.3596 30.4419 16.6405C30.4419 16.9215 30.3623 17.1967 30.2125 17.4343C30.0626 17.6719 29.8485 17.8623 29.595 17.9834L4.51167 29.9798C4.25453 30.103 3.96742 30.1497 3.6845 30.1143C3.40158 30.079 3.13477 29.9632 2.9158 29.7806C2.69683 29.598 2.53493 29.3563 2.44935 29.0843C2.36378 28.8124 2.35814 28.5215 2.4331 28.2465L4.94262 19.0465C4.97334 18.9337 5.03657 18.8325 5.12443 18.7554C5.21228 18.6784 5.32088 18.6289 5.43667 18.6131L17.5914 16.9619C17.6422 16.9547 17.6903 16.9345 17.731 16.9032C17.7717 16.8719 17.8036 16.8306 17.8236 16.7834L17.845 16.7096C17.8544 16.6431 17.841 16.5754 17.8071 16.5175C17.7732 16.4596 17.7207 16.4148 17.6581 16.3905L17.5926 16.3726L5.44977 14.7215C5.33419 14.7055 5.22585 14.6559 5.13822 14.5788C5.0506 14.5018 4.98755 14.4007 4.95691 14.2881L2.4331 5.03574C2.35783 4.76058 2.36325 4.46958 2.44869 4.19741C2.53414 3.92523 2.69601 3.68336 2.91504 3.50058C3.13407 3.31781 3.40101 3.20184 3.68409 3.1665C3.96716 3.13115 4.25442 3.17791 4.51167 3.30122Z" fill="white"/>
</svg>
