<svg width="14" height="15" viewBox="0 0 14 15" fill="none" xmlns="http://www.w3.org/2000/svg">
<path fill-rule="evenodd" clip-rule="evenodd" d="M12.3949 7.00493C12.6682 7.2783 12.6682 7.72151 12.3949 7.99488L7.49488 12.8949C7.22151 13.1682 6.7783 13.1682 6.50493 12.8949L1.60493 7.99488C1.46822 7.85817 1.39988 7.67899 1.3999 7.49982V3.9999C1.3999 2.8401 2.3401 1.8999 3.4999 1.8999H7.00009C7.17918 1.89995 7.35824 1.96829 7.49488 2.10493L12.3949 7.00493ZM3.4999 4.6999C3.8865 4.6999 4.1999 4.3865 4.1999 3.9999C4.1999 3.6133 3.8865 3.2999 3.4999 3.2999C3.1133 3.2999 2.7999 3.6133 2.7999 3.9999C2.7999 4.3865 3.1133 4.6999 3.4999 4.6999Z" fill="#667085"/>
</svg>
