<svg width="16" height="16" viewBox="0 0 16 16" fill="none" xmlns="http://www.w3.org/2000/svg">
<path d="M2.96695 9.27222L7.60203 13.6264C7.65387 13.6751 7.67979 13.6994 7.70447 13.7175C7.88034 13.8463 8.11934 13.8463 8.2952 13.7175C8.31988 13.6994 8.3458 13.6751 8.39765 13.6264L13.0327 9.27222C14.3368 8.04714 14.4952 6.03115 13.3984 4.61746L13.1921 4.35164C11.88 2.66047 9.24626 2.94409 8.32428 4.87585C8.19405 5.14872 7.80563 5.14872 7.67539 4.87585C6.75342 2.94409 4.11965 2.66047 2.80753 4.35164L2.6013 4.61746C1.50447 6.03115 1.66284 8.04714 2.96695 9.27222Z" stroke="#11E559" stroke-width="2"/>
</svg>
