<svg width="16" height="16" viewBox="0 0 16 16" fill="none" xmlns="http://www.w3.org/2000/svg">
<path fill-rule="evenodd" clip-rule="evenodd" d="M5.42975 4.27016C4.77381 4.14749 4.05829 4.37066 3.59761 4.96443L3.39138 5.23024C2.61074 6.2364 2.72345 7.67124 3.65162 8.54316L7.99983 12.6278L12.348 8.54316C13.2762 7.67124 13.3889 6.2364 12.6083 5.23024L12.4021 4.96442L13.1763 4.36373L12.402 4.96442C11.7365 4.10662 10.5392 4.02145 9.75613 4.63818L8.51866 3.06698C10.1192 1.80637 12.5942 1.9494 13.9822 3.73843L14.1885 4.00425L13.3984 4.61724L14.1885 4.00425C15.6015 5.82546 15.3975 8.42262 13.7174 10.0009L9.08232 14.355C9.07745 14.3596 9.07239 14.3643 9.06715 14.3693C9.00198 14.4306 8.90862 14.5185 8.81645 14.5895C8.70349 14.6765 8.5168 14.7998 8.25659 14.8509C8.08704 14.8842 7.91263 14.8842 7.74307 14.8509C7.48286 14.7998 7.29618 14.6765 7.18321 14.5895C7.09105 14.5185 6.99769 14.4306 6.93252 14.3693C6.92728 14.3644 6.92221 14.3596 6.91735 14.355L2.28227 10.0009C0.602213 8.42261 0.398193 5.82546 1.81121 4.00425L2.60129 4.61725L1.81121 4.00425L2.01744 3.73843C3.4447 1.89886 6.02103 1.79871 7.61639 3.17875L8.33926 3.80405L7.74725 4.55443L7.37044 5.03205C7.10254 5.37162 6.95375 5.56253 6.86272 5.70839C6.86 5.71276 6.85741 5.71697 6.85494 5.721C6.85868 5.72391 6.86259 5.72692 6.86669 5.73004C7.00352 5.83416 7.21033 5.95991 7.58122 6.18245C7.59355 6.18985 7.60587 6.19724 7.61817 6.20462C7.91282 6.38134 8.19808 6.55244 8.42085 6.72092C8.6669 6.907 8.93447 7.15964 9.09479 7.53877C9.18794 7.75903 9.24082 7.99421 9.25094 8.23314C9.26834 8.64441 9.13468 8.98727 8.99198 9.26077C8.86278 9.5084 8.67822 9.78515 8.48759 10.071C8.47963 10.0829 8.47166 10.0949 8.46368 10.1068L8.16524 10.5545L6.50113 9.44512L6.79958 8.99745C7.02322 8.662 7.14553 8.47608 7.21882 8.33562C7.22092 8.3316 7.22291 8.32773 7.22481 8.32401C7.2215 8.32146 7.21804 8.31882 7.21443 8.31608C7.08807 8.22052 6.89793 8.10486 6.55223 7.89743C6.53925 7.88965 6.5263 7.88188 6.51336 7.87412C6.19587 7.68369 5.89128 7.50099 5.6556 7.32166C5.39726 7.12509 5.11409 6.85524 4.95673 6.44824C4.8662 6.2141 4.82057 5.96501 4.8222 5.71399C4.82504 5.27764 4.99415 4.92492 5.16602 4.64953C5.24133 4.52885 5.33123 4.40181 5.42975 4.27016Z" fill="#C4320A"/>
</svg>
