<svg width="32" height="32" viewBox="0 0 32 32" fill="none" xmlns="http://www.w3.org/2000/svg">
<path d="M6.6665 17.0127C6.6665 15.2024 6.6665 14.2972 7.03245 13.5016C7.3984 12.7059 8.08566 12.1168 9.46017 10.9387L10.7935 9.79582C13.2779 7.66632 14.5201 6.60156 15.9998 6.60156C17.4795 6.60156 18.7217 7.66632 21.2062 9.79582L22.5395 10.9387C23.914 12.1168 24.6013 12.7059 24.9672 13.5016C25.3332 14.2972 25.3332 15.2024 25.3332 17.0127V22.6666C25.3332 25.1807 25.3332 26.4378 24.5521 27.2189C23.7711 27.9999 22.514 27.9999 19.9998 27.9999H11.9998C9.48568 27.9999 8.2286 27.9999 7.44755 27.2189C6.6665 26.4378 6.6665 25.1807 6.6665 22.6666V17.0127Z" stroke="white" stroke-width="2"/>
<path d="M19.3332 28V21C19.3332 20.4477 18.8855 20 18.3332 20H13.6665C13.1142 20 12.6665 20.4477 12.6665 21V28" stroke="white" stroke-width="2" stroke-linecap="round" stroke-linejoin="round"/>
</svg>
