<svg width="40" height="41" viewBox="0 0 40 41" fill="none" xmlns="http://www.w3.org/2000/svg">
<path d="M29.3116 5.9293C32.6723 5.9293 36.033 5.93388 39.3937 5.92014C39.76 5.92014 39.8653 6.01629 39.8607 6.38258C39.8424 8.15908 39.8424 9.93558 39.8607 11.7167C39.8607 12.0601 39.7463 12.1333 39.4303 12.1242C38.6932 12.1058 37.956 12.1379 37.2234 12.1104C36.8526 12.0967 36.7244 12.1883 36.7289 12.5866C36.7518 14.3494 36.7289 16.1121 36.7473 17.8795C36.7473 18.2183 36.6648 18.3328 36.3123 18.3282C34.5495 18.3099 32.7822 18.3282 31.0194 18.3099C30.6623 18.3099 30.5478 18.3877 30.5524 18.7677C30.5753 20.5305 30.5524 22.2933 30.5661 24.0606C30.5661 24.3948 30.4883 24.5047 30.1312 24.5047C24.2293 24.4956 18.3275 24.4956 12.4211 24.5047C12.0686 24.5047 11.9816 24.3948 11.9816 24.056C11.9907 20.3336 11.9816 16.6112 11.9999 12.8888C11.9999 12.4767 11.8808 12.3851 11.4871 12.3897C9.93034 12.4126 8.37819 12.3897 6.82146 12.408C6.46891 12.408 6.33155 12.3394 6.34987 11.9548C6.38192 11.2084 6.34529 10.453 6.36818 9.70665C6.37734 9.38157 6.28119 9.28084 5.94695 9.28084C4.17045 9.29458 2.38937 9.27626 0.612869 9.29458C0.219108 9.29916 0.122958 9.17554 0.141272 8.80009C0.173322 8.08125 0.168744 7.35325 0.141272 6.63441C0.127536 6.27727 0.255737 6.19028 0.594555 6.19944C1.31797 6.22233 2.0414 6.18112 2.76024 6.21775C3.18147 6.24065 3.27304 6.08955 3.25473 5.70037C3.22268 5.009 3.26846 4.31305 3.23641 3.6171C3.2181 3.22792 3.31883 3.0814 3.73548 3.09972C4.48179 3.13177 5.23727 3.09972 5.98358 3.11345C6.27203 3.11803 6.36818 3.03562 6.3636 2.73801C6.34529 1.94591 6.3636 1.15381 6.35445 0.36171C6.34987 0.0961508 6.42313 0 6.70242 0C10.5942 0.0183144 14.4815 0.0183144 18.3733 0.00915722C18.6984 0.00915722 18.7259 0.151094 18.7213 0.412075C18.7121 2.09242 18.7258 3.77277 18.7075 5.45312C18.7075 5.82399 18.7945 5.94304 19.1883 5.94304C22.5627 5.92472 25.9372 5.93388 29.3116 5.93388V5.9293Z" fill="#7F60F9"/>
<path d="M33.0937 38.4419C33.0754 38.5838 32.97 38.6434 32.8968 38.7212C32.1917 39.4309 31.4728 40.1268 30.7815 40.8503C30.5663 41.0746 30.4564 41.0288 30.2641 40.8319C27.3429 37.9016 24.408 34.9851 21.4915 32.0502C21.2076 31.7663 21.0702 31.7663 20.7864 32.0502C17.9018 34.9576 14.999 37.8467 12.1099 40.7495C11.8535 41.0059 11.707 41.0563 11.4323 40.7678C10.7958 40.0902 10.1319 39.4355 9.45431 38.8036C9.18875 38.5518 9.18417 38.4144 9.45431 38.1489C12.4762 35.1453 15.4889 32.128 18.5016 29.1107C19.2892 28.3232 20.0813 27.5494 20.8505 26.7481C21.0748 26.5146 21.203 26.5101 21.4365 26.7481C24.4401 29.77 27.4574 32.7828 30.4701 35.7955C31.276 36.6013 32.0818 37.4071 32.8831 38.2084C32.9609 38.2862 33.0296 38.3687 33.0937 38.4419Z" fill="#7F60F9"/>
<path d="M14.0747 6.24988C14.0747 6.6528 14.0701 7.05571 14.0747 7.45863C14.0747 7.65551 14.0381 7.76998 13.8046 7.76998C12.9575 7.76082 12.1105 7.76082 11.2634 7.76998C11.0391 7.76998 10.9795 7.66925 10.9841 7.46321C10.9887 6.6299 10.9933 5.7966 10.9841 4.96787C10.9841 4.7252 11.0757 4.65652 11.3001 4.6611C12.1196 4.67026 12.9392 4.67484 13.7542 4.6611C14.0243 4.65652 14.0793 4.77557 14.0701 5.00907C14.0564 5.42573 14.0701 5.84238 14.0701 6.25904L14.0747 6.24988Z" fill="#1E1E1E"/>
</svg>
